<svg width="30" height="30" viewBox="0 0 30 30" fill="none" xmlns="http://www.w3.org/2000/svg">
<circle cx="15" cy="15" r="15" fill="#F2E206"/>
<path d="M14.9609 5.87149C14.1328 5.87149 13.3789 6.29258 12.9883 6.95079L12.8164 7.24063L12.5195 7.08126C12.2422 6.93087 11.9258 6.85118 11.6094 6.85118C10.5039 6.85118 9.60547 7.77188 9.60547 8.92969C9.60547 9.96485 10.332 10.8281 11.3047 10.9844L11.6016 11.0313V13.1172C13.8633 12.6836 16.1328 12.6641 18.3984 13.1172V10.3945L18.5859 10.293C19.1992 9.96876 19.6055 9.27344 19.6055 8.49024C19.6055 7.36524 18.7969 6.49337 17.832 6.49337C17.5781 6.49337 17.3242 6.55626 17.0938 6.67774L16.8516 6.80274L16.6719 6.60391C16.25 6.14415 15.625 5.87149 14.9609 5.87149ZM15 13.4805C14 13.4805 13.0039 13.5742 12.0039 13.7539C11.9688 13.9883 11.9531 14.2305 11.9531 14.4805C11.9531 15.6133 12.3125 16.6367 12.875 17.3594C13.4375 18.082 14.1836 18.5039 15 18.5039C15.8164 18.5039 16.5625 18.082 17.125 17.3594C17.6875 16.6367 18.0469 15.6133 18.0469 14.4805C18.0469 14.2305 18.0273 13.9844 17.9961 13.75C16.9961 13.5664 16 13.4766 15 13.4805ZM13.1523 18.5938L9.66797 19.7539L8.575 24.1289H17.5625L16.9961 20.1563L17.6914 20.0547L18.2734 24.1289H21.4258L20.332 19.7539L16.8477 18.5938C16.3086 18.9805 15.6758 19.207 15 19.207C14.3242 19.207 13.6914 18.9805 13.1523 18.5938ZM15.8594 20.6523C15.9107 20.6523 15.9615 20.6624 16.0089 20.6821C16.0563 20.7017 16.0993 20.7305 16.1356 20.7667C16.1719 20.803 16.2006 20.8461 16.2203 20.8935C16.2399 20.9409 16.25 20.9917 16.25 21.043C16.25 21.0943 16.2399 21.1451 16.2203 21.1925C16.2006 21.2399 16.1719 21.2829 16.1356 21.3192C16.0993 21.3555 16.0563 21.3842 16.0089 21.4039C15.9615 21.4235 15.9107 21.4336 15.8594 21.4336C15.8081 21.4336 15.7573 21.4235 15.7099 21.4039C15.6625 21.3842 15.6194 21.3555 15.5832 21.3192C15.5469 21.2829 15.5181 21.2399 15.4985 21.1925C15.4788 21.1451 15.4687 21.0943 15.4688 21.043C15.4687 20.9917 15.4788 20.9409 15.4985 20.8935C15.5181 20.8461 15.5469 20.803 15.5832 20.7667C15.6194 20.7305 15.6625 20.7017 15.7099 20.6821C15.7573 20.6624 15.8081 20.6523 15.8594 20.6523ZM16.1328 22.4492C16.2364 22.4492 16.3358 22.4904 16.409 22.5636C16.4823 22.6369 16.5234 22.7362 16.5234 22.8398C16.5234 22.9434 16.4823 23.0428 16.409 23.1161C16.3358 23.1893 16.2364 23.2305 16.1328 23.2305C16.0292 23.2305 15.9299 23.1893 15.8566 23.1161C15.7833 23.0428 15.7422 22.9434 15.7422 22.8398C15.7422 22.7362 15.7833 22.6369 15.8566 22.5636C15.9299 22.4904 16.0292 22.4492 16.1328 22.4492Z" fill="white"/>
</svg>
