<svg width="50" height="50" viewBox="0 0 50 50" fill="none" xmlns="http://www.w3.org/2000/svg">
<path d="M30.2083 18.75H30.1875M19.7917 18.75H19.7708M41.6667 43.75L41.6667 16.6667C41.6667 15.0091 41.0082 13.4193 39.8361 12.2472C38.664 11.0751 37.0743 10.4167 35.4167 10.4167L14.5833 10.4167C12.9257 10.4167 11.336 11.0751 10.1639 12.2472C8.9918 13.4193 8.33332 15.0091 8.33332 16.6667L8.33332 29.1667C8.33332 30.8243 8.9918 32.414 10.1639 33.5861C11.336 34.7582 12.9257 35.4167 14.5833 35.4167L33.3333 35.4167L41.6667 43.75Z" stroke="black" stroke-width="2" stroke-linecap="round" stroke-linejoin="round"/>
<path d="M30.2083 27.0833C29.5294 27.7762 28.719 28.3267 27.8247 28.7025C26.9304 29.0783 25.9701 29.2719 25 29.2719C24.0299 29.2719 23.0696 29.0783 22.1752 28.7025C21.2809 28.3267 20.4706 27.7762 19.7916 27.0833" stroke="black" stroke-width="2" stroke-linecap="round" stroke-linejoin="round"/>
</svg>
