<svg width="25" height="25" viewBox="0 0 25 25" fill="none" xmlns="http://www.w3.org/2000/svg">
<path d="M23.1375 5.89165C22.3426 6.24332 21.4996 6.47433 20.6365 6.57707C21.5459 6.03242 22.2263 5.17575 22.5511 4.16665C21.6969 4.67498 20.7604 5.03123 19.7854 5.22394C19.1298 4.52246 18.2608 4.05724 17.3135 3.90059C16.3662 3.74395 15.3937 3.90466 14.5472 4.35775C13.7006 4.81083 13.0275 5.53091 12.6324 6.40602C12.2373 7.28113 12.1425 8.26226 12.3625 9.19686C10.6301 9.11019 8.93539 8.66012 7.38828 7.87588C5.84117 7.09165 4.4763 5.99079 3.3823 4.64478C2.9951 5.30983 2.79163 6.06585 2.79272 6.8354C2.79272 8.34582 3.56251 9.68019 4.73022 10.4614C4.03856 10.4396 3.36214 10.2528 2.7573 9.91665V9.96978C2.75727 10.9759 3.10525 11.9511 3.74223 12.7299C4.37921 13.5087 5.26596 14.0432 6.25209 14.2427C5.61005 14.4169 4.93677 14.4425 4.28334 14.3177C4.56139 15.1837 5.10336 15.9411 5.83334 16.4837C6.56332 17.0264 7.44475 17.3271 8.35418 17.3437C7.45038 18.0536 6.41551 18.5783 5.30877 18.8879C4.20202 19.1974 3.0451 19.2858 1.90417 19.1479C3.89555 20.4285 6.21366 21.1084 8.58126 21.1062C16.5958 21.1062 20.9771 14.4677 20.9771 8.7104C20.9771 8.5229 20.9729 8.33332 20.9646 8.14686C21.8171 7.53057 22.5529 6.7662 23.1375 5.89165Z" fill="white"/>
</svg>
