<svg width="25" height="25" viewBox="0 0 25 25" fill="none" xmlns="http://www.w3.org/2000/svg">
<path d="M12.5 0C5.60769 0 0 5.60769 0 12.5C0 19.3923 5.60769 25 12.5 25C19.3923 25 25 19.3923 25 12.5C25 5.60769 19.3923 0 12.5 0ZM12.5 1.92308C18.3529 1.92308 23.0769 6.64712 23.0769 12.5C23.0769 18.3529 18.3529 23.0769 12.5 23.0769C6.64712 23.0769 1.92308 18.3529 1.92308 12.5C1.92308 6.64712 6.64712 1.92308 12.5 1.92308ZM13.1923 6.34038L11.8077 7.69231L15.6538 11.5385H5.76923V13.4615H15.6538L11.8077 17.3077L13.1923 18.6596L18.6596 13.1913L19.3519 12.499L18.6596 11.8067L13.1913 6.33942L13.1923 6.34038Z" fill="#250101"/>
</svg>
