<svg width="30" height="30" viewBox="0 0 30 30" fill="none" xmlns="http://www.w3.org/2000/svg">
<path d="M4.74375 11.0766C4.74375 11.0766 3.45938 11.8852 3.31172 12.6914C3.16406 13.5 3.45938 14.4539 3.8625 15.0774C4.26563 15.7008 4.74375 16.2164 5.33203 16.4367C5.92031 16.657 6.4336 16.6195 6.4336 16.6195C6.4336 16.6195 7.79297 18.1617 10.2141 20.2547C12.6352 22.3477 15.7219 24.8438 19.2094 26.7891C22.6969 28.7344 23.9461 29.2125 24.9 29.2125C25.8539 29.2125 25.8188 27.7805 25.7086 27.3398C25.5984 26.8992 19.4672 20.0719 19.4672 20.0719L4.74375 11.0766Z" fill="#FF8E00"/>
<path d="M7.31485 14.6391L6.3961 13.6477C6.3961 13.6477 5.44219 11.8477 4.56094 11.8477C3.67969 11.8477 3.31172 12.6914 3.31172 12.6914C3.31172 12.6914 3.20157 11.7727 4.30313 10.0125C5.40469 8.25236 6.79922 6.85548 8.04844 5.97423C9.29766 5.09298 10.8375 4.06407 11.8664 3.47814C12.8953 2.8922 15.1336 2.15626 16.4203 1.71564C17.7047 1.27501 20.4961 0.72423 21.7805 0.982042C23.0648 1.23985 23.6156 2.1211 23.6156 3.03751C23.6156 3.95392 23.3953 4.5797 23.2125 4.76251C23.0297 4.94532 21.818 5.97423 21.818 5.97423L7.31485 14.6391Z" fill="#F5B03E"/>
<path d="M9.89063 10.7695L7.61484 12.2391L6.66094 14.1117C6.66094 14.1117 6.84375 14.7352 7.13906 15.0656C7.43203 15.3961 9.89063 17.7516 11.6508 19.2562C13.0242 20.4305 15.9516 22.9219 15.9516 22.9219C15.9516 22.9219 16.0711 24.1734 16.2094 25.0523C16.3195 25.7508 16.3266 26.9156 17.0625 26.8828C17.9906 26.8406 17.4563 24.9609 18.1922 24.9797C19.6617 25.0172 18.2039 28.9922 19.7836 28.9711C21.0422 28.9547 20.243 26.782 20.8734 26.4117C21.2156 26.2102 21.8953 27.0656 23.0039 27.5508C24.3727 28.1484 25.207 28.6008 25.6477 28.3945C26.5781 27.9586 24.6164 17.7937 24.3961 16.0687C24.1758 14.3437 23.0789 5.48437 23.0039 5.1914C22.9289 4.89843 21.4242 4.86093 21.4242 4.86093L19.1109 5.66953L15.8063 6.11015L11.9156 8.42343L9.89063 10.7695Z" fill="#FFCC8A"/>
<path d="M9.31641 10.4016C8.59453 10.8094 7.66406 11.0367 6.87891 12.3305C6.225 13.4086 6.05156 14.5125 6.51797 14.5969C6.98438 14.6813 7.33828 13.0547 7.95938 12.4359C8.95547 11.4399 9.76172 11.3344 10.3336 10.8047C10.9055 10.275 11.5312 8.83595 13.9148 7.56329C16.6922 6.0797 18.3516 6.47111 19.0008 6.22736C19.8492 5.90861 20.0789 5.38829 21.1406 5.16798C22.2633 4.93595 23.0437 5.38361 23.0437 5.38361C23.0437 5.38361 23.2992 4.79064 22.9594 4.51407C22.6195 4.23751 21.9937 4.02189 20.9484 4.23517C19.8047 4.4672 18.9562 5.23126 18.7242 5.25236C18.4922 5.27345 16.118 5.14689 13.2984 6.75704C10.4789 8.3672 9.95156 10.0406 9.31641 10.4016Z" fill="#CB6C22"/>
<path d="M12.5578 12.9656L8.76562 13.793C8.76562 13.793 8.70703 14.5125 8.74453 14.7258C8.87109 15.4453 9.825 16.5914 10.3969 16.7812C10.9687 16.9711 12.1336 16.9922 12.5156 16.8234C12.8977 16.6547 14.0414 15.8273 14.1891 15.382C14.3367 14.9367 14.2969 13.0734 14.0016 12.7758C13.7062 12.4805 12.5578 12.9656 12.5578 12.9656Z" fill="#DB0D27"/>
<path d="M9.88828 11.7797C9.48281 12.0937 8.70235 13.1578 8.76563 13.9195C8.82891 14.6836 10.1438 16.0172 10.5023 16.1437C10.8609 16.2703 12.0281 16.2914 12.3258 16.207C12.6234 16.1226 13.7672 15.2742 13.9359 14.9789C14.1047 14.6812 14.2547 13.0289 13.9781 12.7336C13.7016 12.4383 12.8766 11.5687 12.2203 11.3766C11.5617 11.1867 10.2703 11.482 9.88828 11.7797Z" fill="#ED6D30"/>
<path d="M19.5937 15.3399C19.5937 15.3399 16.2375 15.0984 16.1953 15.3094C16.1531 15.5203 16.0758 16.3359 16.2891 16.9922C16.4391 17.4586 16.7977 18.2649 17.8992 18.7289C19.0008 19.193 20.0602 18.6867 20.3367 18.4734C20.8547 18.075 21.1852 17.5828 21.2695 17.2875C21.3539 16.9922 19.5937 15.3399 19.5937 15.3399Z" fill="#DB0D27"/>
<path d="M17.9625 13.5797C17.4445 13.7672 16.2047 14.5336 16.1813 15.382C16.1602 16.2305 16.7742 17.2687 17.093 17.5008C17.4117 17.7328 18.4711 18.3492 19.2539 18.307C20.0391 18.2648 21.1195 17.6297 21.2672 17.2898C21.4148 16.95 21.4781 15.9539 21.4148 15.4453C21.3516 14.9367 20.25 13.793 19.6992 13.6219C19.1484 13.4531 18.4289 13.4109 17.9625 13.5797Z" fill="#ED6D30"/>
<path d="M17.8359 21.5062C17.8359 21.5062 14.7633 20.6578 14.7211 20.7211C14.6789 20.7844 14.2547 21.3141 14.3602 21.5695C14.4656 21.825 15.5461 22.6922 15.9914 23.0742C16.4367 23.4562 17.782 24.2461 17.9414 24.218C18.3234 24.1547 18.6187 23.5406 18.6187 23.5406L17.8359 21.5062Z" fill="#DB0D27"/>
<path d="M18.1102 20.2125C17.3602 19.6617 16.2656 19.7039 15.6727 19.9805C15.0797 20.257 14.7187 20.6156 14.6555 20.8922C14.5922 21.1687 15.082 21.7008 15.2742 21.8484C15.4641 21.9961 16.0406 22.432 16.0406 22.432C16.0406 22.432 16.8961 23.1023 17.2125 23.3461C17.6531 23.6859 18.2062 23.8781 18.3539 23.8992C18.5016 23.9203 19.1906 23.0297 19.0641 21.8414C18.9984 21.2344 18.7406 20.6766 18.1102 20.2125Z" fill="#ED6D30"/>
<path d="M23.4516 18.518L22.3078 18.4758C22.3078 18.4758 21.8414 19.3453 22.1602 20.3203C22.4203 21.1172 22.9664 21.593 23.8758 21.8461C24.7875 22.1015 25.2961 22.0101 25.2961 22.0101L25.3102 21.3703L23.4516 18.518Z" fill="#DB0D27"/>
<path d="M24.5531 17.0555C24.5531 17.0555 23.1422 16.8891 22.4133 18.1992C21.8555 19.2047 22.2445 20.0438 22.6898 20.5313C23.1352 21.0188 23.8125 21.3375 24.3211 21.3797C24.8297 21.4219 25.3219 21.382 25.3219 21.382C25.3219 21.382 25.125 20.0813 24.9328 18.9938C24.8156 18.3422 24.5531 17.0555 24.5531 17.0555Z" fill="#ED6D30"/>
<path d="M20.4422 7.8797C20.4422 7.8797 17.7094 7.96407 17.5383 8.24064C17.3672 8.5172 17.3695 9.74533 17.4539 10.2328C17.5383 10.7203 18.2812 11.9063 19.7648 11.9274C21.2484 11.9485 21.7711 11.5781 22.3477 10.4578C22.9242 9.33751 22.3242 8.08361 22.3242 8.08361L20.4422 7.8797Z" fill="#DB0D27"/>
<path d="M20.4633 6.62813C19.8703 6.51329 19.043 6.75469 18.6398 7.03125C18.2367 7.30782 17.5805 7.87969 17.5383 8.30391C17.4961 8.72813 17.8781 9.95625 18.0258 10.1906C18.1734 10.4227 18.7875 11.0531 18.9797 11.1445C19.425 11.3555 20.6531 11.25 21.0141 11.1234C21.375 10.9969 22.3711 10.1906 22.4766 9.76641C22.582 9.34219 22.7086 8.62266 22.2211 7.75313C21.7336 6.8836 21.0141 6.73594 20.4633 6.62813Z" fill="#ED6D30"/>
<path d="M24.3234 24.4149L21.8836 24.3094C21.8836 24.3094 21.5555 24.968 21.6539 25.5445C21.7336 26.0227 22.1297 26.6742 22.8398 26.9485C23.243 27.1031 24.2977 27.0024 24.5555 26.8266C25.0758 26.4703 25.2422 25.8234 25.2258 25.4906C25.2188 25.3172 24.3234 24.4149 24.3234 24.4149Z" fill="#DB0D27"/>
<path d="M23.7914 23.3789C23.1586 23.2828 22.4297 23.625 22.1156 23.9508C21.8016 24.2766 21.7383 24.6844 21.8578 25.1766C22.0758 26.0766 22.6523 26.332 22.9195 26.4703C23.3156 26.6742 24.4031 26.6344 24.7453 26.3742C25.0852 26.1164 25.343 25.6758 25.2633 24.9984C25.1812 24.3188 24.8812 23.543 23.7914 23.3789Z" fill="#ED6D30"/>
<path d="M8.4375 7.27266C8.4586 7.77891 9.34453 7.69219 9.69375 7.65703C9.97266 7.62891 10.6711 7.57031 10.6711 7.11563C10.6711 6.66094 10.0617 6.66328 9.60703 6.67969C9.16875 6.69609 8.41875 6.87188 8.4375 7.27266ZM13.1977 4.29141C13.1977 4.62422 13.5633 4.65703 13.7906 4.67578C14.018 4.69219 14.3133 4.60547 14.332 4.34531C14.3484 4.08281 14.1234 3.92578 13.7906 3.90938C13.4414 3.88828 13.1977 4.01016 13.1977 4.29141ZM15.3773 5.09297C15.7125 5.45625 16.2141 4.97109 16.3898 4.74375C16.5633 4.51641 16.5984 4.16719 16.4063 3.99375C16.2141 3.82031 15.8484 4.01016 15.6047 4.2375C15.3609 4.46484 15.1688 4.86563 15.3773 5.09297ZM19.1625 3.24375C19.5703 3.70547 20.243 2.92969 20.5219 2.66719C20.8008 2.40469 21.0281 2.03906 20.7656 1.74375C20.5031 1.44844 19.9102 1.86563 19.6852 2.12813C19.4578 2.38828 18.9 2.94844 19.1625 3.24375ZM6.30938 11.0742C6.70547 11.168 6.83438 10.6992 6.90235 10.3406C6.97266 9.975 6.97266 9.62578 6.675 9.57422C6.3375 9.51563 6.15235 9.85313 6.09844 10.1836C6.05391 10.4813 5.94375 10.9875 6.30938 11.0742Z" fill="#FCC12B"/>
</svg>
