<svg width="25" height="25" viewBox="0 0 25 25" fill="none" xmlns="http://www.w3.org/2000/svg">
<circle cx="12.5" cy="12.5" r="12.5" fill="#F2E206"/>
<path d="M17.3333 21.7778C16.5926 21.7778 15.963 21.5185 15.4444 21C14.9259 20.4815 14.6667 19.8519 14.6667 19.1111C14.6667 19.0074 14.6741 18.8999 14.6889 18.7884C14.7037 18.677 14.7259 18.5772 14.7556 18.4889L8.48889 14.8444C8.23704 15.0667 7.95556 15.2409 7.64444 15.3671C7.33333 15.4933 7.00741 15.5561 6.66667 15.5556C5.92593 15.5556 5.2963 15.2963 4.77778 14.7778C4.25926 14.2593 4 13.6296 4 12.8889C4 12.1481 4.25926 11.5185 4.77778 11C5.2963 10.4815 5.92593 10.2222 6.66667 10.2222C7.00741 10.2222 7.33333 10.2853 7.64444 10.4116C7.95556 10.5378 8.23704 10.7117 8.48889 10.9333L14.7556 7.28889C14.7259 7.2 14.7037 7.10015 14.6889 6.98933C14.6741 6.87852 14.6667 6.77096 14.6667 6.66667C14.6667 5.92593 14.9259 5.2963 15.4444 4.77778C15.963 4.25926 16.5926 4 17.3333 4C18.0741 4 18.7037 4.25926 19.2222 4.77778C19.7407 5.2963 20 5.92593 20 6.66667C20 7.40741 19.7407 8.03704 19.2222 8.55556C18.7037 9.07407 18.0741 9.33333 17.3333 9.33333C16.9926 9.33333 16.6667 9.27052 16.3556 9.14489C16.0444 9.01926 15.763 8.84504 15.5111 8.62222L9.24444 12.2667C9.27407 12.3556 9.2963 12.4557 9.31111 12.5671C9.32593 12.6785 9.33333 12.7858 9.33333 12.8889C9.33333 12.9926 9.32593 13.1001 9.31111 13.2116C9.2963 13.323 9.27407 13.4228 9.24444 13.5111L15.5111 17.1556C15.763 16.9333 16.0444 16.7594 16.3556 16.6338C16.6667 16.5081 16.9926 16.445 17.3333 16.4444C18.0741 16.4444 18.7037 16.7037 19.2222 17.2222C19.7407 17.7407 20 18.3704 20 19.1111C20 19.8519 19.7407 20.4815 19.2222 21C18.7037 21.5185 18.0741 21.7778 17.3333 21.7778Z" fill="white"/>
</svg>
