<svg width="30" height="30" viewBox="0 0 30 30" fill="none" xmlns="http://www.w3.org/2000/svg">
<g clip-path="url(#clip0_108_1629)">
<path d="M15 30C23.2843 30 30 26.269 30 21.6667C30 17.0643 23.2843 13.3333 15 13.3333C6.71573 13.3333 0 17.0643 0 21.6667C0 26.269 6.71573 30 15 30Z" fill="#8899A6"/>
<path d="M15 28.5417C23.2843 28.5417 30 24.8107 30 20.2083C30 15.606 23.2843 11.875 15 11.875C6.71573 11.875 0 15.606 0 20.2083C0 24.8107 6.71573 28.5417 15 28.5417Z" fill="#CCD6DD"/>
<path d="M27.2292 19.7375C27.2292 23.2875 21.7542 26.1642 15 26.1642C8.24583 26.1642 2.77083 23.2875 2.77083 19.7375C2.77083 16.1892 8.24583 13.3117 15 13.3117C21.7533 13.3117 27.2292 16.1892 27.2292 19.7375Z" fill="#DD2E44"/>
<path d="M26.8608 18.7858C26.8608 26.9975 3.13917 26.9975 3.13917 18.7858V11.4867H26.8608V18.7858Z" fill="#F4ABBA"/>
<path d="M14.9867 15.1383C7.5 15.1383 3.13833 11.695 3.13833 11.695C3.13833 11.695 3.125 12.465 3.125 13.0992C3.125 13.0992 3.15167 17.1808 5.26833 17.1808C7.3175 17.1808 7.16833 19.1375 8.46333 19.34C9.7475 19.5408 9.89 18.5583 11.4842 18.5583C13.0783 18.5583 13.3592 20.3133 14.9867 20.3133C16.8942 20.3133 17.0508 18.5583 18.6442 18.5583C20.2375 18.5583 20.4208 19.5783 21.4658 19.2958C22.7217 18.9558 22.1442 17.1817 24.705 17.1817C26.8217 17.1817 26.8742 13.3083 26.8742 13.3083C26.8742 12.675 26.86 11.6958 26.86 11.6958C26.86 11.6958 22.4742 15.1383 14.9867 15.1383Z" fill="#DD2E44"/>
<path d="M27.2292 10.6142C27.2292 14.1633 21.7542 17.0408 15 17.0408C8.24583 17.0408 2.77083 14.1633 2.77083 10.6142C2.77083 7.065 8.24583 4.1875 15 4.1875C21.7533 4.1875 27.2292 7.065 27.2292 10.6142Z" fill="#EA596E"/>
<path d="M21.3867 11.4867C20.8825 11.4867 20.4742 11.0783 20.4742 10.5742V4.18749C20.4742 3.94548 20.5703 3.71339 20.7414 3.54226C20.9126 3.37113 21.1447 3.27499 21.3867 3.27499C21.6287 3.27499 21.8608 3.37113 22.0319 3.54226C22.203 3.71339 22.2992 3.94548 22.2992 4.18749V10.5742C22.2992 11.0783 21.8908 11.4867 21.3867 11.4867Z" fill="#FFF8E8"/>
<path d="M21.3867 5.55582C20.4183 5.55582 19.6567 5.11249 19.3492 4.36999C19.0825 3.72582 18.95 2.32832 21.0642 0.214987C21.1065 0.172605 21.1568 0.138984 21.2121 0.116045C21.2674 0.0931059 21.3268 0.0812988 21.3867 0.0812988C21.4466 0.0812988 21.5059 0.0931059 21.5612 0.116045C21.6166 0.138984 21.6668 0.172605 21.7092 0.214987C23.8233 2.32915 23.6908 3.72582 23.4242 4.36999C23.1167 5.11249 22.355 5.55582 21.3867 5.55582Z" fill="#FAAA35"/>
<path d="M15 14.2233C14.4958 14.2233 14.0875 13.815 14.0875 13.3108V6.92501C14.0875 6.80518 14.1111 6.68652 14.157 6.57581C14.2028 6.4651 14.27 6.36451 14.3548 6.27978C14.4395 6.19504 14.5401 6.12783 14.6508 6.08197C14.7615 6.03611 14.8802 6.01251 15 6.01251C15.1198 6.01251 15.2385 6.03611 15.3492 6.08197C15.4599 6.12783 15.5605 6.19504 15.6452 6.27978C15.73 6.36451 15.7972 6.4651 15.843 6.57581C15.8889 6.68652 15.9125 6.80518 15.9125 6.92501V13.3117C15.9125 13.815 15.5042 14.2233 15 14.2233Z" fill="#FFF8E8"/>
<path d="M15 8.29334C14.0317 8.29334 13.27 7.85001 12.9625 7.1075C12.695 6.46334 12.5633 5.06584 14.6775 2.9525C14.7198 2.91012 14.7701 2.8765 14.8254 2.85356C14.8808 2.83062 14.9401 2.81882 15 2.81882C15.0599 2.81882 15.1192 2.83062 15.1746 2.85356C15.2299 2.8765 15.2802 2.91012 15.3225 2.9525C17.4367 5.06667 17.3042 6.46334 17.0375 7.1075C16.73 7.85001 15.9683 8.29334 15 8.29334Z" fill="#FAAA35"/>
<path d="M8.61333 11.4867C8.10917 11.4867 7.70083 11.0783 7.70083 10.5742V4.18749C7.70083 4.06766 7.72444 3.949 7.77029 3.8383C7.81615 3.72759 7.88336 3.62699 7.9681 3.54226C8.05283 3.45753 8.15342 3.39031 8.26413 3.34445C8.37484 3.2986 8.4935 3.27499 8.61333 3.27499C8.73316 3.27499 8.85182 3.2986 8.96253 3.34445C9.07324 3.39031 9.17383 3.45753 9.25857 3.54226C9.3433 3.62699 9.41051 3.72759 9.45637 3.8383C9.50223 3.949 9.52583 4.06766 9.52583 4.18749V10.5742C9.52583 11.0783 9.1175 11.4867 8.61333 11.4867Z" fill="#FFF8E8"/>
<path d="M8.61333 5.55582C7.645 5.55582 6.88333 5.11249 6.57583 4.36999C6.30833 3.72582 6.17667 2.32832 8.29083 0.214987C8.33317 0.172605 8.38344 0.138984 8.43878 0.116045C8.49411 0.0931059 8.55343 0.0812988 8.61333 0.0812988C8.67324 0.0812988 8.73255 0.0931059 8.78789 0.116045C8.84323 0.138984 8.8935 0.172605 8.93583 0.214987C11.05 2.32915 10.9175 3.72582 10.6508 4.36999C10.3433 5.11249 9.58167 5.55582 8.61333 5.55582Z" fill="#FAAA35"/>
</g>
<defs>
<clipPath id="clip0_108_1629">
<rect width="30" height="30" fill="white"/>
</clipPath>
</defs>
</svg>
