<svg width="30" height="30" viewBox="0 0 30 30" fill="none" xmlns="http://www.w3.org/2000/svg">
<path d="M5.58281 18.0773L3.77812 15.2484L4.27265 13.3031L8.44687 10.5445L14.2125 9.83672L20.7562 10.6852L23.9062 11.9227C23.9062 11.9227 26.2758 13.9734 26.3109 14.3977C26.3461 14.8219 25.6734 17.0508 25.6383 17.1562C25.6031 17.2617 25.1437 19.5609 23.7633 20.0555C22.3828 20.55 13.507 21.825 13.3641 21.7523C13.2211 21.6797 5.58281 18.0773 5.58281 18.0773Z" fill="#2F2F2F"/>
<path d="M4.62891 17.1937C4.62891 17.1937 4.68281 16.5937 4.88672 15.9961C5.15859 15.1945 7.67109 11.7117 14.7094 11.7117C21.7477 11.7117 25.6383 15.1781 25.2492 16.9102C24.8602 18.6422 20.0156 22.9945 20.0156 22.9945C20.0156 22.9945 11.5266 21.6867 11.3859 21.6516C11.243 21.6141 4.62891 17.1937 4.62891 17.1937Z" fill="#F7B03A"/>
<path d="M7.90313 15.1312C7.69688 15.1758 7.51641 15.3094 7.53516 15.5484C7.55157 15.7875 7.77188 15.9 7.96875 15.8672C8.27578 15.8156 8.38594 15.5977 8.3461 15.3844C8.30625 15.1898 8.09063 15.0891 7.90313 15.1312ZM7.70625 16.2445C7.9125 16.5703 7.60078 17.0227 6.97735 17.2195C6.35391 17.4164 5.92032 17.318 5.84766 16.8914C5.775 16.4648 6.33047 16.1953 6.61641 16.0969C6.90235 15.9984 7.49297 15.9094 7.70625 16.2445ZM11.0461 13.8867C11.0602 14.2031 11.5125 14.3789 12.1523 14.2969C12.7922 14.2148 13.1344 13.8633 13.1016 13.5445C13.0688 13.2258 12.6188 13.1016 12.1031 13.1344C11.5875 13.1672 11.0297 13.4859 11.0461 13.8867ZM13.2422 13.0594C13.2422 13.343 13.5773 13.4367 14.0109 13.4109C14.5266 13.3828 14.6672 13.1812 14.6906 12.9937C14.7141 12.8062 14.4047 12.5109 13.9688 12.5437C13.5375 12.5766 13.2422 12.7477 13.2422 13.0594ZM17.5406 15.7125C17.5078 16.0711 17.7539 16.4648 18.7195 16.3852C19.6852 16.3055 19.875 15.8203 19.875 15.6492C19.875 15.4781 19.7156 14.9578 18.7945 14.9437C18.2391 14.9344 17.5898 15.1711 17.5406 15.7125ZM22.0383 15.5086C22.0195 15.6914 22.0781 16.1648 22.9477 16.1391C23.8148 16.1156 23.7094 15.8203 23.7094 15.6891C23.7094 15.5578 23.4141 15.075 22.8 15.0094C22.3102 14.9555 22.0711 15.2039 22.0383 15.5086ZM23.1516 16.7766C23.1352 16.9969 23.3883 17.1703 23.9297 17.1375C24.3891 17.1094 24.5883 16.868 24.5766 16.6875C24.5602 16.425 24.307 16.2937 23.9133 16.3102C23.5688 16.3242 23.1773 16.4672 23.1516 16.7766ZM13.2094 18.9727C13.2188 19.1602 13.6195 19.3828 14.2664 19.3828C14.9133 19.3828 15.0352 19.1133 15.0352 18.9164C15.0352 18.7195 14.8313 18.4992 14.2336 18.4734C13.6992 18.45 13.193 18.6539 13.2094 18.9727Z" fill="#FFE36A"/>
<path d="M6.49453 18.3258C6.51797 18.2695 6.54609 18.0234 6.66562 17.8172C6.77109 17.6367 6.95859 17.4891 7.17422 17.4891C7.55156 17.4891 8.40234 17.6367 8.59922 17.9063C8.74219 18.1031 8.73047 18.832 8.15625 19.0195C7.58203 19.2094 6.49453 18.3258 6.49453 18.3258ZM8.24531 14.557C8.25703 14.707 8.49844 15.007 8.81953 14.9836C9.13828 14.9602 10.0641 14.5336 10.1555 14.3438C10.2445 14.1563 9.86953 13.7297 9.62344 13.7297C9.37734 13.7297 8.22187 14.2477 8.24531 14.557ZM17.6812 17.0813C17.5852 17.2758 17.4844 17.85 17.9016 18.007C18.3187 18.1617 19.9336 18.2367 19.9336 17.7703C19.9336 17.3039 19.4742 16.9688 19.3031 16.943C19.1297 16.9172 17.8289 16.7859 17.6812 17.0813ZM19.5727 16.3195C19.3078 16.7297 19.7906 17.2172 20.1469 17.3836C20.9156 17.7445 21.3023 17.6836 21.5719 17.482C22.0312 17.1375 21.8742 16.793 20.8922 16.3359C20.1914 16.0078 19.7531 16.0406 19.5727 16.3195Z" fill="#D64C12"/>
<path d="M15.2508 13.875C15.2438 14.3086 16.2141 14.7469 16.9125 14.768C17.6109 14.7891 17.7938 14.4609 17.8453 14.3063C17.8969 14.1516 17.6508 13.6195 17.3742 13.3922C17.0977 13.1648 16.3898 12.9305 16.0711 12.9727C15.7523 13.0125 15.2602 13.3219 15.2508 13.875Z" fill="#7F594B"/>
<path d="M9.54609 16.1531C9.59297 16.4461 10.0406 16.6453 10.8281 16.6969C11.782 16.7578 12.3867 16.3266 12.4078 16.1437C12.4289 15.9586 11.8734 15.4875 10.9008 15.4875C9.71953 15.4852 9.50625 15.8953 9.54609 16.1531Z" fill="#FE8D00"/>
<path d="M9.20859 17.8969C9.17813 18.4195 9.54609 18.6352 10.0594 18.6141C10.5727 18.593 11.5359 18.1125 11.7305 17.557C11.8523 17.2125 11.2781 16.6031 10.4367 16.6336C9.95156 16.6523 9.23438 17.4398 9.20859 17.8969Z" fill="#7F594B"/>
<path d="M18.2367 14.8078C18.443 14.9203 19.2117 14.7047 19.8164 14.5828C20.4211 14.4609 21.0375 14.3977 21.1289 14.2031C21.2203 14.0086 21.0562 13.1883 20.1539 13.1156C19.2516 13.043 18.7383 13.3828 18.5227 13.6172C18.307 13.8539 18.1641 14.1398 18.1523 14.2219C18.143 14.3062 18.0937 14.7305 18.2367 14.8078ZM21.9094 16.3477C22.2023 16.2961 22.0125 15.4148 21.7758 15.1477C21.5391 14.8805 20.8734 14.7586 20.4516 14.8102C20.032 14.8617 19.7438 14.9742 19.7227 15.2109C19.7016 15.4477 20.4516 15.8461 20.8406 16.0219C21.232 16.193 21.7336 16.3781 21.9094 16.3477Z" fill="#FE8D00"/>
<path d="M11.8359 17.0109C12.0773 17.0953 12.6398 16.9312 12.6469 16.575C12.6539 16.2187 12.3328 15.8859 12.0164 15.9586C11.857 15.9937 11.5242 16.4086 11.5313 16.568C11.5383 16.7297 11.7117 16.9687 11.8359 17.0109ZM13.0172 14.8734C13.0383 15.157 13.6688 15.4523 13.8867 15.2648C14.093 15.0867 13.9734 14.3297 13.7063 14.3297C13.3734 14.3297 13.0078 14.7562 13.0172 14.8734ZM13.6125 16.2351C13.6172 16.3359 13.7648 16.8 14.1281 16.793C14.4914 16.7859 14.9836 16.4156 14.9836 16.2281C14.9836 16.0406 14.4117 15.4383 14.1422 15.4453C13.9594 15.45 13.6055 16.0406 13.6125 16.2351Z" fill="#92A51E"/>
<path d="M14.8078 14.8945C14.7656 15.1453 14.9531 15.1711 15.1195 15.1992C15.2859 15.2273 15.4969 15.2789 15.7148 15.5625C15.9328 15.8461 16.1461 16.4344 16.1719 16.4977C16.2516 16.7016 16.6148 16.8094 16.875 16.5563C17.1352 16.3031 16.6219 15.1875 16.1648 14.8313C15.7055 14.475 14.8875 14.4305 14.8078 14.8945Z" fill="#FBE0BC"/>
<path d="M14.6906 15.4898C14.7258 15.7219 15.2555 16.1484 15.6258 15.9609C15.9961 15.7734 15.5977 15.082 15.4359 15.007C15.3352 14.9578 14.6391 15.1523 14.6906 15.4898ZM16.8445 14.918C16.6781 14.9109 16.5398 14.9695 16.5469 15.2508C16.5539 15.5344 16.6617 15.8531 17.032 15.8742C17.4023 15.8953 17.4375 15.4101 17.4375 15.3516C17.4375 15.293 17.2125 14.932 16.8445 14.918ZM16.9523 16.4531C16.8141 16.4203 16.1484 16.7062 16.1344 16.9758C16.1203 17.243 16.3664 17.4469 16.7859 17.4984C17.2055 17.55 17.4891 17.55 17.5477 17.3461C17.6039 17.1422 17.3648 16.5539 16.9523 16.4531Z" fill="#92A51E"/>
<path d="M19.9734 18.893C19.9992 19.05 20.5523 19.2961 20.7305 19.2469C20.9062 19.1977 21.3398 18.293 21.9891 18.1078C22.6383 17.9203 22.8539 18 22.943 17.9016C23.032 17.8031 22.9031 17.3508 22.6875 17.2734C22.4719 17.1961 21.8906 17.0859 21.1641 17.5102C20.4187 17.9414 19.943 18.7172 19.9734 18.893ZM13.0477 16.6617C12.7289 16.6805 12.3 17.1539 12.1148 17.5852C11.8312 18.2391 11.7422 18.7828 11.8195 18.9211C11.8992 19.0594 12.4641 19.2516 12.6937 19.0969C12.7523 19.057 12.8109 18.3305 13.0969 17.7797C13.2914 17.407 13.6172 17.2594 13.6758 17.2008C13.7344 17.1422 13.568 16.6336 13.0477 16.6617ZM10.3055 13.343C10.2187 13.425 9.98203 13.8047 10.0594 14.4727C10.1203 14.9813 10.1906 15.2906 10.3547 15.3656C10.4812 15.4242 11.3859 15.5133 11.4656 15.2766C11.5453 15.0398 10.9852 14.3836 10.9242 14.2641C10.8633 14.1445 10.8352 13.4578 10.8258 13.3711C10.8164 13.282 10.4437 13.2141 10.3055 13.343Z" fill="#FBE0AF"/>
<path d="M28.7508 13.268C28.3266 12.4195 27.8672 12.1008 27.4781 12.1008C27.0891 12.1008 25.7461 12.7383 25.7461 12.7383C25.7461 12.7383 22.7344 9.5039 15.0961 9.39375C7.7039 9.28593 4.56093 12.3445 4.56093 12.3445C4.56093 12.3445 3.49687 11.5336 2.47031 11.6391C1.44609 11.7469 0.562497 14.4352 1.02187 15.2133C1.48125 15.9914 2.1539 15.9562 2.68359 16.2398C3.21328 16.5234 3.71015 16.8422 3.81562 17.018C3.92109 17.1937 4.23984 21.1219 5.23125 22.8891C6.22265 24.6586 8.09531 27.0281 14.9578 27.1687C21.8203 27.3094 23.6719 24.5391 24.5062 22.9594C25.4977 21.0844 25.957 17.618 25.957 17.618C25.957 17.618 26.6648 16.9805 27.443 16.6641C28.3031 16.3125 28.6805 16.2398 28.9289 15.8859C29.175 15.5297 29.175 14.1164 28.7508 13.268ZM15.2039 19.882C7.81172 19.8094 4.2375 17.475 4.34531 14.8242C4.41562 13.0922 7.88203 10.2258 14.6742 10.2961C21.5391 10.3687 25.8164 12.8437 25.7812 15.1406C25.7437 17.4398 22.4555 19.9523 15.2039 19.882Z" fill="#6A6E70"/>
<path opacity="0.6" d="M14.932 13.418C15.6797 13.3383 15.3398 12.0797 15.9539 10.8656C17.3578 8.0836 20.1164 7.80235 20.0391 5.42813C19.9547 2.83125 15.9281 1.57032 14.7023 2.56641C14.3086 2.8875 16.5656 3.25547 16.2094 4.73672C15.8508 6.21797 13.1203 6.31875 12.457 8.69297C11.6672 11.5102 14.4469 13.4672 14.932 13.418Z" fill="#EAEAEA"/>
</svg>
