<svg width="50" height="50" viewBox="0 0 50 50" fill="none" xmlns="http://www.w3.org/2000/svg">
<path d="M46.2748 11.7834C44.6849 12.4868 42.999 12.9488 41.2727 13.1543C43.0916 12.065 44.4525 10.3516 45.1019 8.33342C43.3935 9.35009 41.5206 10.0626 39.5706 10.448C38.2594 9.04505 36.5214 8.1146 34.6268 7.80131C32.7322 7.48802 30.7871 7.80945 29.0941 8.71562C27.401 9.62179 26.0547 11.0619 25.2646 12.8122C24.4744 14.5624 24.2847 16.5246 24.7248 18.3938C21.2601 18.2205 17.8705 17.3204 14.7763 15.7519C11.6821 14.1834 8.95235 11.9817 6.76436 9.28967C5.98996 10.6198 5.58301 12.1318 5.58519 13.6709C5.58519 16.6918 7.12477 19.3605 9.46019 20.923C8.07689 20.8794 6.72404 20.5058 5.51436 19.8334V19.9397C5.51429 21.9519 6.21026 23.9022 7.48421 25.4598C8.75817 27.0174 10.5317 28.0864 12.5039 28.4855C11.2199 28.8339 9.8733 28.8852 8.56644 28.6355C9.12253 30.3676 10.2065 31.8823 11.6664 32.9676C13.1264 34.0529 14.8893 34.6543 16.7081 34.6876C14.9005 36.1073 12.8308 37.1567 10.6173 37.7759C8.40379 38.395 6.08996 38.5717 3.80811 38.2959C7.79086 40.8571 12.4271 42.2169 17.1623 42.2126C33.1914 42.2126 41.9539 28.9355 41.9539 17.4209C41.9539 17.0459 41.9456 16.6668 41.9289 16.2938C43.6339 15.0613 45.1056 13.5325 46.2748 11.7834Z" fill="#250101"/>
</svg>
