<svg width="40" height="40" viewBox="0 0 40 40" fill="none" xmlns="http://www.w3.org/2000/svg">
<path d="M20.9293 1.60156C20.9293 1.60156 19.9168 2.11828 18.9054 2.87922C18.3996 3.25969 17.8878 3.70109 17.4831 4.20945C17.0784 4.71773 16.7486 5.32133 16.7987 6.02711C16.8545 6.81148 17.3862 7.39562 17.9534 7.74586C18.5205 8.09602 19.1645 8.30789 19.771 8.51687C20.3775 8.72586 20.9468 8.93195 21.3079 9.155C21.669 9.37797 21.7807 9.52242 21.7987 9.77711C21.8008 9.80602 21.7661 9.96039 21.5946 10.1758C21.4231 10.3912 21.1472 10.6391 20.8586 10.8562C20.2814 11.2904 19.6793 11.6016 19.6793 11.6016L20.3207 12.8528C20.3207 12.8528 21.0103 12.5017 21.704 11.9798C22.0509 11.7189 22.4053 11.4152 22.6947 11.0517C22.9842 10.688 23.2411 10.2361 23.2014 9.67727C23.1456 8.89289 22.6139 8.30875 22.0467 7.95852C21.4796 7.60828 20.8356 7.39648 20.2291 7.1875C19.6225 6.97852 19.0533 6.77242 18.6922 6.54938C18.3311 6.32633 18.2194 6.18195 18.2014 5.92727C18.1889 5.75133 18.2964 5.44539 18.5831 5.08531C18.8698 4.72516 19.3032 4.3393 19.7507 4.00266C20.6456 3.32945 21.5707 2.85281 21.5707 2.85281L20.9293 1.60156ZM10.9293 5.35156C10.9293 5.35156 9.91684 5.86828 8.90535 6.62922C8.39965 7.00969 7.88777 7.45109 7.48309 7.95945C7.0784 8.46773 6.74855 9.07133 6.79871 9.77711C6.85449 10.5615 7.38621 11.1456 7.9534 11.4959C8.52051 11.846 9.16449 12.0579 9.77098 12.2669C10.3775 12.4759 10.9468 12.682 11.3079 12.905C11.669 13.128 11.7807 13.2724 11.7987 13.5271C11.8008 13.556 11.7661 13.7104 11.5946 13.9258C11.4231 14.1412 11.1472 14.3891 10.8586 14.6063C10.2814 15.0404 9.67934 15.3516 9.67934 15.3516L10.3207 16.6028C10.3207 16.6028 11.0103 16.2517 11.704 15.7298C12.0509 15.4689 12.4053 15.1652 12.6947 14.8016C12.9842 14.438 13.2411 13.986 13.2014 13.4273C13.1456 12.6429 12.6139 12.0588 12.0467 11.7085C11.4796 11.3583 10.8356 11.1465 10.2291 10.9375C9.62254 10.7285 9.05332 10.5224 8.69223 10.2994C8.33105 10.0763 8.21941 9.93195 8.20137 9.67727C8.18887 9.50133 8.29645 9.19539 8.58309 8.83531C8.8698 8.47516 9.30324 8.0893 9.75074 7.75266C10.6456 7.07945 11.5707 6.60281 11.5707 6.60281L10.9293 5.35156ZM30.9293 5.35156C30.9293 5.35156 29.9168 5.86828 28.9054 6.62922C28.3996 7.00969 27.8878 7.45109 27.4831 7.95945C27.0784 8.46773 26.7486 9.07133 26.7987 9.77711C26.8545 10.5615 27.3862 11.1456 27.9534 11.4959C28.5205 11.846 29.1645 12.0579 29.771 12.2669C30.3775 12.4759 30.9468 12.682 31.3079 12.905C31.669 13.128 31.7807 13.2724 31.7987 13.5271C31.8008 13.556 31.7661 13.7104 31.5946 13.9258C31.4231 14.1412 31.1472 14.3891 30.8586 14.6063C30.2814 15.0404 29.6793 15.3516 29.6793 15.3516L30.3207 16.6028C30.3207 16.6028 31.0103 16.2517 31.704 15.7298C32.0509 15.4689 32.4053 15.1652 32.6947 14.8016C32.9842 14.438 33.2411 13.986 33.2014 13.4273C33.1456 12.6429 32.6139 12.0588 32.0467 11.7085C31.4796 11.3583 30.8356 11.1465 30.2291 10.9375C29.6225 10.7285 29.0533 10.5224 28.6922 10.2994C28.3311 10.0763 28.2194 9.93195 28.2014 9.67727C28.1889 9.50133 28.2964 9.19539 28.5831 8.83531C28.8698 8.47516 29.3032 8.0893 29.7507 7.75266C30.6456 7.07945 31.5707 6.60281 31.5707 6.60281L30.9293 5.35156ZM20 14.6489C18.9844 14.6489 18.2975 15.1109 17.7725 15.8984C17.5552 16.2245 17.3798 16.6094 17.2479 17.0285C18.1323 16.903 19.0503 16.8367 20 16.8367C20.9498 16.8367 21.8677 16.903 22.7521 17.0285C22.6203 16.6094 22.4449 16.2245 22.2275 15.8984C21.7025 15.1109 21.0157 14.6489 20 14.6489ZM20 18.2427C10.6698 18.2427 4.86316 24.9645 4.4891 31.8367H35.511C35.1368 24.9645 29.3302 18.2426 20 18.2426V18.2427ZM1.74715 32.1988L0.75293 33.193C2.16855 34.6087 3.75004 34.6489 5.00004 34.6489H35C36.25 34.6489 37.8314 34.6087 39.2472 33.193L38.2529 32.1988C37.1686 33.2831 36.25 33.243 35 33.243H5.00004C3.75004 33.243 2.83145 33.2831 1.74715 32.1988ZM8.81363 36.0552L10.3763 38.3992H29.6238L31.1864 36.0552H8.81363Z" fill="#250101"/>
</svg>
