<svg width="50" height="50" viewBox="0 0 50 50" fill="none" xmlns="http://www.w3.org/2000/svg">
<g clip-path="url(#clip0_70_4174)">
<path fill-rule="evenodd" clip-rule="evenodd" d="M25.0001 4.16699C21.6849 4.16699 18.5055 5.48395 16.1613 7.82816C13.8171 10.1724 12.5001 13.3518 12.5001 16.667V20.5732L10.6251 19.167C10.4062 19.0028 10.1572 18.8834 9.89214 18.8155C9.62711 18.7476 9.35131 18.7326 9.08047 18.7713C8.80963 18.81 8.54907 18.9016 8.31365 19.041C8.07824 19.1804 7.87258 19.3648 7.70843 19.5837C7.54428 19.8025 7.42484 20.0516 7.35694 20.3166C7.28904 20.5816 7.27401 20.8575 7.3127 21.1283C7.35139 21.3991 7.44305 21.6597 7.58244 21.8951C7.72183 22.1305 7.90623 22.3362 8.1251 22.5003L12.0126 25.417C11.0876 27.8503 8.83135 30.3962 5.17926 32.5899C4.93972 32.7369 4.73205 32.9305 4.56853 33.1591C4.40501 33.3877 4.28895 33.6467 4.2272 33.9209C4.16544 34.1951 4.15925 34.4789 4.20898 34.7556C4.25872 35.0322 4.36337 35.2961 4.51676 35.5316C6.84593 39.0253 10.5418 41.667 14.5834 41.667C18.3001 41.667 20.848 45.8337 25.0001 45.8337C29.1897 45.8337 31.6855 41.667 35.4168 41.667C39.4584 41.667 43.1543 39.0253 45.4834 35.5316C45.6368 35.2961 45.7415 35.0322 45.7912 34.7556C45.8409 34.4789 45.8347 34.1951 45.773 33.9209C45.7112 33.6467 45.5952 33.3877 45.4317 33.1591C45.2681 32.9305 45.0605 32.7369 44.8209 32.5899C41.1688 30.3962 38.9126 27.8503 37.9876 25.417L41.8751 22.5003C42.3171 22.1688 42.6094 21.6753 42.6875 21.1283C42.7656 20.5813 42.6233 20.0257 42.2918 19.5837C41.9602 19.1416 41.4667 18.8494 40.9197 18.7713C40.3727 18.6931 39.8171 18.8355 39.3751 19.167L37.5001 20.5732V16.667C37.5001 13.3518 36.1831 10.1724 33.8389 7.82816C31.4947 5.48395 28.3153 4.16699 25.0001 4.16699Z" fill="#250101"/>
</g>
<defs>
<clipPath id="clip0_70_4174">
<rect width="50" height="50" fill="white"/>
</clipPath>
</defs>
</svg>
