<svg width="30" height="30" viewBox="0 0 30 30" fill="none" xmlns="http://www.w3.org/2000/svg">
<path d="M3.26016 21.0633C3.26016 21.0633 3.03516 22.5352 3.55781 23.8336C3.99375 24.9211 5.12344 26.3531 7.28438 27.4453C9.44531 28.5375 11.9273 28.9219 15.5906 28.9969C19.2539 29.0742 23.018 28.2188 24.825 26.632C26.6344 25.043 27.2672 23.707 27.2156 22.2563C27.1641 20.8055 26.393 20.2547 26.393 20.2547L3.26016 21.0633Z" fill="#FCB745"/>
<path d="M4.30781 19.5844L3.23906 20.6531C3.23906 20.6531 2.94844 22.0828 4.56094 23.6297C5.78203 24.7992 7.94297 26.8313 15.1195 26.8852C21.8367 26.9367 23.9484 25.4602 25.2445 24.4172C26.543 23.3742 27.0305 21.5625 26.9016 21.0539C26.775 20.5453 26.3766 20.2524 26.3766 20.2524L4.30781 19.5844Z" fill="#E78B20"/>
<path d="M4.76484 21.1101C4.76484 21.1101 4.4625 21.6234 4.56094 21.9492C4.63828 22.2047 4.79062 23.2477 7.8164 24.5695C9.41719 25.2703 12.1406 25.8422 15.6773 25.7391C19.8727 25.6172 23.2336 24.7734 24.8602 23.2453C26.5266 21.682 26.2078 20.7516 26.2078 20.7516L4.76484 21.1101Z" fill="#FFD290"/>
<path d="M3.9 17.5477C3.9 17.5477 2.89687 18.5695 2.73047 19.0242C2.57344 19.4531 2.59453 20.0766 2.87109 20.5805C3.24375 21.2555 3.70781 21.3258 4.28203 21.6703C4.90313 22.0406 5.88516 23.1961 8.30156 23.7047C10.718 24.2133 13.8984 24.443 15.6023 24.443C17.3062 24.443 19.5703 24.4172 21.682 23.7047C23.7937 22.9922 26.2102 21.593 26.7703 20.3461C27.3305 19.0992 26.7961 18.3609 26.7961 18.3609L25.575 17.5477H3.9Z" fill="#6D544D"/>
<path d="M3.31406 16.2516C3.31406 16.2516 2.53594 16.2164 2.34844 17.3953C2.2125 18.2531 2.83125 18.7945 2.83125 18.7945C2.83125 18.7945 2.50312 19.2656 2.88281 19.8633C3.23906 20.4235 3.62109 20.55 4.40859 20.6766C4.97578 20.768 5.27344 20.5992 6.01172 21.007C6.9375 21.518 7.33359 22.432 8.60625 22.711C9.87891 22.9899 11.3039 22.7367 11.3531 22.5328C11.4023 22.3289 9.57188 21.5672 6.26484 19.7086C5.14922 19.0828 4.12734 18.232 3.84844 17.8008C3.56953 17.3695 3.31406 16.2516 3.31406 16.2516ZM19.3172 22.4578C19.3172 22.7883 20.4117 22.636 20.9203 22.357C21.4289 22.0781 22.2422 21.3656 22.9805 21.0586C23.7188 20.7539 23.9977 21.0328 25.0664 20.5242C26.1352 20.0156 26.7211 18.8203 26.7211 18.8203C26.7211 18.8203 27.2414 18.1781 27.2836 17.7281C27.3492 17.0414 27.2813 16.7086 26.7984 16.5563C26.3156 16.4039 25.2633 17.986 25.1109 18.1641C24.9586 18.3422 22.7039 19.9899 21.8133 20.625C20.9227 21.2602 19.3172 22.2797 19.3172 22.4578Z" fill="#9B7169"/>
<path d="M4.30781 15.3867C4.30781 15.3867 3.03516 15.5391 2.85703 16.0734C2.67891 16.6078 3.23906 17.3953 4.71328 18.3891C5.92266 19.2023 10.0664 21.1594 11.7094 22.1789C13.5914 23.3484 15.1852 24.982 15.45 25.0031C15.7805 25.0289 18.075 22.5914 21.2508 20.4492C24.2695 18.4102 26.3391 17.9062 27.0773 16.4039C27.4734 15.5977 26.5172 15.1312 26.5172 15.1312L14.2547 10.4766L4.30781 15.3867Z" fill="#FFE869"/>
<path d="M15.6023 23.6297C15.982 23.5875 17.9672 21.6703 20.3086 20.1961C22.65 18.7219 26.1094 17.1422 26.618 16.2539C27.1266 15.3656 25.9055 14.7773 25.9055 14.7773L11.6578 12.3867L3.31406 15.668C3.31406 15.668 2.85703 15.8203 3.16172 16.2023C3.46641 16.5844 3.94922 17.2195 5.01797 17.8805C6.31641 18.6844 9.64922 20.018 11.7586 21.1617C13.8727 22.3055 15.1453 23.6789 15.6023 23.6297Z" fill="#FFBE01"/>
<path d="M4.4625 16.0477L4.90547 17.2336C4.90547 17.2336 8.09297 20.4469 14.4328 20.5734C20.7422 20.7 24.2789 17.6977 24.2789 17.6977L25.0852 15.6727L4.4625 16.0477Z" fill="#F4482B"/>
<path d="M12.7734 18.007L12.2742 18.8062C12.2742 18.8062 13.3406 19.4461 13.6477 19.5563C14.0883 19.7133 14.5219 19.657 15.1711 19.4555C15.8203 19.2563 18.5156 18.1828 18.5156 18.1828C18.5156 18.1828 20.7445 18.2156 22.1438 18.2414C23.3836 18.2648 24.6258 17.8195 25.275 17.0695C25.9242 16.3195 26.932 14.7117 26.932 14.7117C26.932 14.7117 27.457 14.5875 27.8062 14.1867C28.1555 13.7859 28.1812 13.4367 28.1812 13.4367C28.1812 13.4367 28.0805 12.7617 27.7078 12.5883C27.3328 12.4125 10.6313 11.3906 10.6313 11.3906L3.93984 11.8898L2.8125 14.2125L6.53203 17.3836L11.775 17.6836L12.7734 18.007Z" fill="#A6B732"/>
<path d="M3.16172 12.1664C2.78438 11.9953 2.38828 12.0164 2.2125 12.5156C2.03672 13.0149 2.09063 13.2352 2.09063 13.2352C2.09063 13.2352 1.57734 13.343 1.51406 13.9875C1.43906 14.7609 2.2875 15.0352 2.2875 15.0352C2.2875 15.0352 2.32734 15.3352 2.6625 15.6352C3.04453 15.9773 3.42656 15.9422 3.42656 15.9422C3.42656 15.9422 4.43438 16.9336 5.10938 17.332C5.78438 17.7305 6.75703 18.007 7.73203 17.9813C8.70703 17.9555 9.03047 17.5078 9.75469 17.7563C10.4789 18.0047 12.3984 19.0148 13.1719 19.0313C14.3953 19.057 17.0414 17.1586 17.6414 17.1844C18.2414 17.2102 20.9625 17.6344 22.4109 17.6344C23.8594 17.6344 24.3844 17.2102 24.7078 16.7859C25.0312 16.3617 25.582 15.2883 25.4062 15.2625C25.2305 15.2367 24.082 16.1859 23.2594 16.1109C22.4344 16.0359 21.7125 15.5625 20.6883 15.5625C19.6641 15.5625 14.6719 16.2117 14.3461 16.3617C14.0203 16.5117 12.6234 17.5852 12.3492 17.5359C12.075 17.4867 11.1258 16.6875 10.8023 16.5117C10.4789 16.3359 7.07344 16.2234 6.58359 16.3125C6.23203 16.3758 5.73516 16.4625 5.73516 16.4625C5.73516 16.4625 5.78438 15.6891 5.36016 15.2391C4.93594 14.7891 3.53672 14.0156 3.53672 14.0156C3.53672 14.0156 3.71016 12.4148 3.16172 12.1664ZM25.3055 13.5141C25.3055 13.5141 26.8289 13.5141 27.2531 13.4883C27.6773 13.4625 28.1766 13.4391 28.1766 13.4391C28.1766 13.4391 28.0313 12.7477 27.8109 12.3797C27.3609 11.625 26.2781 11.4164 26.2781 11.4164L25.3055 13.5141Z" fill="#C2DD1F"/>
<path d="M2.8125 11.243L2.64609 11.9789C2.64609 11.9789 4.95 16.0594 15.3047 16.2141C21.3656 16.3055 24.8484 14.4656 26.3859 12.9609C27.307 12.0586 27.3375 11.182 27.3375 11.182L2.8125 11.243Z" fill="#DE8010"/>
<path d="M2.2875 9.21327C2.15625 11.2523 2.65313 11.9836 2.65313 11.9836C2.65313 11.9836 6.07969 15.0867 14.8312 15.2297C23.8008 15.375 26.7164 12.4008 27.2273 11.5336C27.5531 10.9828 27.8133 9.90233 27.607 8.32733C27.2648 5.72577 24.2695 0.78983 14.7891 0.82733C5.30859 0.86483 2.47969 6.25311 2.2875 9.21327Z" fill="url(#paint0_radial_108_1630)"/>
<path d="M11.2945 3.36563C11.3672 3.76407 9.56953 5.09063 9.30938 3.81797C9.06563 2.62032 11.2266 2.99766 11.2945 3.36563ZM11.9367 5.86172C12.0305 6.10782 13.8727 6.46172 13.6758 5.42344C13.4695 4.34297 11.7445 5.35547 11.9367 5.86172ZM13.5516 3.01172C13.5984 3.36563 15.7453 3.77813 15.7008 2.77969C15.6469 1.54688 13.4977 2.60157 13.5516 3.01172ZM10.0102 6.68204C10.0219 6.76172 9.49453 7.17657 8.95547 7.33829C8.48203 7.48126 7.99688 7.42032 7.94297 6.83204C7.89141 6.26485 8.29453 6.0586 8.77734 6.10782C9.33281 6.16172 9.98672 6.52969 10.0102 6.68204ZM14.4703 8.33907C14.3813 7.96641 12.3633 7.44844 12.4992 8.62735C12.6375 9.80157 14.5664 8.73516 14.4703 8.33907ZM16.3594 5.65547C16.2609 5.54063 15.7992 5.56172 15.2367 5.70938C14.8313 5.81719 14.5313 6.27422 14.8125 6.70782C15.1406 7.21407 15.6914 7.00079 16.043 6.57188C16.3289 6.22501 16.4695 5.78438 16.3594 5.65547ZM18.5203 2.91563C18.457 2.84766 17.9953 2.80079 17.618 2.9836C17.2383 3.16641 16.9102 3.60235 17.2617 4.01016C17.618 4.42032 18.1477 4.1836 18.3984 3.75001C18.5977 3.40079 18.6164 3.01876 18.5203 2.91563ZM19.9688 6.48282C19.9078 6.10079 18.2109 5.4211 18.2227 6.46172C18.2344 7.52813 20.0227 6.82735 19.9688 6.48282ZM22.3148 4.59844C22.2586 4.30547 20.1 4.06876 20.468 5.1586C20.85 6.29532 22.3828 4.95469 22.3148 4.59844ZM19.343 8.43282C19.357 8.10469 17.7141 7.35235 17.5922 8.33672C17.4703 9.3211 19.3242 8.85938 19.343 8.43282Z" fill="#FDEAC8"/>
<defs>
<radialGradient id="paint0_radial_108_1630" cx="0" cy="0" r="1" gradientUnits="userSpaceOnUse" gradientTransform="translate(14.8745 3.63818) rotate(89.3583) scale(10.322 17.9858)">
<stop offset="0.517" stop-color="#DF8016"/>
<stop offset="0.643" stop-color="#E58C21"/>
<stop offset="1" stop-color="#F5AC3C"/>
</radialGradient>
</defs>
</svg>
