<svg width="25" height="25" viewBox="0 0 25 25" fill="none" xmlns="http://www.w3.org/2000/svg">
<path fill-rule="evenodd" clip-rule="evenodd" d="M16.3614 11.7632C16.5566 11.9586 16.6664 12.2235 16.6664 12.4997C16.6664 12.7759 16.5566 13.0408 16.3614 13.2362L10.4687 19.1289C10.3726 19.2284 10.2576 19.3077 10.1305 19.3623C10.0035 19.4169 9.86676 19.4456 9.72845 19.4468C9.59014 19.448 9.45297 19.4217 9.32496 19.3693C9.19694 19.3169 9.08064 19.2396 8.98283 19.1418C8.88503 19.044 8.80768 18.9277 8.7553 18.7997C8.70293 18.6716 8.67657 18.5345 8.67777 18.3962C8.67898 18.2578 8.70771 18.1212 8.7623 17.9941C8.8169 17.867 8.89625 17.752 8.99574 17.656L14.152 12.4997L8.99574 7.34345C8.80599 7.14699 8.701 6.88386 8.70337 6.61074C8.70575 6.33762 8.8153 6.07636 9.00843 5.88322C9.20156 5.69009 9.46283 5.58054 9.73595 5.57816C10.0091 5.57579 10.2722 5.68079 10.4687 5.87053L16.3614 11.7632Z" fill="#250101"/>
</svg>
