<svg width="25" height="25" viewBox="0 0 25 25" fill="none" xmlns="http://www.w3.org/2000/svg">
<path d="M20.8333 4.16668H17.5312L15.625 2.08334H9.375L7.46875 4.16668H4.16666C3.61413 4.16668 3.08422 4.38617 2.69352 4.77687C2.30282 5.16757 2.08333 5.69748 2.08333 6.25001V18.75C2.08333 19.3025 2.30282 19.8324 2.69352 20.2231C3.08422 20.6138 3.61413 20.8333 4.16666 20.8333H20.8333C21.3859 20.8333 21.9158 20.6138 22.3065 20.2231C22.6972 19.8324 22.9167 19.3025 22.9167 18.75V6.25001C22.9167 5.69748 22.6972 5.16757 22.3065 4.77687C21.9158 4.38617 21.3859 4.16668 20.8333 4.16668ZM20.8333 18.75H4.16666V6.25001H8.38541L10.2917 4.16668H14.7083L16.6146 6.25001H20.8333V18.75ZM12.5 7.29168C11.1187 7.29168 9.7939 7.84041 8.81715 8.81716C7.8404 9.79391 7.29166 11.1187 7.29166 12.5C7.29166 13.8813 7.8404 15.2061 8.81715 16.1829C9.7939 17.1596 11.1187 17.7083 12.5 17.7083C13.8813 17.7083 15.2061 17.1596 16.1828 16.1829C17.1596 15.2061 17.7083 13.8813 17.7083 12.5C17.7083 11.1187 17.1596 9.79391 16.1828 8.81716C15.2061 7.84041 13.8813 7.29168 12.5 7.29168ZM12.5 15.625C11.6712 15.625 10.8763 15.2958 10.2903 14.7097C9.70424 14.1237 9.375 13.3288 9.375 12.5C9.375 11.6712 9.70424 10.8764 10.2903 10.2903C10.8763 9.70425 11.6712 9.37501 12.5 9.37501C13.3288 9.37501 14.1237 9.70425 14.7097 10.2903C15.2958 10.8764 15.625 11.6712 15.625 12.5C15.625 13.3288 15.2958 14.1237 14.7097 14.7097C14.1237 15.2958 13.3288 15.625 12.5 15.625Z" fill="black"/>
</svg>
