<svg width="25" height="25" viewBox="0 0 25 25" fill="none" xmlns="http://www.w3.org/2000/svg">
<path fill-rule="evenodd" clip-rule="evenodd" d="M8.63863 11.7632C8.44335 11.9586 8.33365 12.2235 8.33365 12.4997C8.33365 12.7759 8.44335 13.0408 8.63863 13.2362L14.5313 19.1289C14.6274 19.2284 14.7424 19.3077 14.8695 19.3623C14.9965 19.4169 15.1332 19.4456 15.2715 19.4468C15.4099 19.448 15.547 19.4217 15.675 19.3693C15.8031 19.3169 15.9194 19.2396 16.0172 19.1418C16.115 19.044 16.1923 18.9277 16.2447 18.7997C16.2971 18.6716 16.3234 18.5345 16.3222 18.3962C16.321 18.2578 16.2923 18.1212 16.2377 17.9941C16.1831 17.867 16.1037 17.752 16.0043 17.656L10.848 12.4997L16.0043 7.34345C16.194 7.14699 16.299 6.88386 16.2966 6.61074C16.2943 6.33762 16.1847 6.07636 15.9916 5.88322C15.7984 5.69009 15.5372 5.58054 15.2641 5.57816C14.9909 5.57579 14.7278 5.68079 14.5313 5.87053L8.63863 11.7632Z" fill="#250101"/>
</svg>
