<svg width="25" height="25" viewBox="0 0 25 25" fill="none" xmlns="http://www.w3.org/2000/svg">
<path d="M7.22917 5.20834C7.22889 5.76087 7.00913 6.29067 6.61824 6.68117C6.22734 7.07168 5.69733 7.29091 5.14479 7.29063C4.59226 7.29035 4.06246 7.07059 3.67196 6.6797C3.28145 6.2888 3.06222 5.75879 3.0625 5.20625C3.06278 4.65372 3.28253 4.12393 3.67343 3.73342C4.06433 3.34291 4.59434 3.12369 5.14688 3.12396C5.69941 3.12424 6.2292 3.344 6.61971 3.73489C7.01021 4.12579 7.22944 4.6558 7.22917 5.20834ZM7.29167 8.83334H3.125V21.875H7.29167V8.83334ZM13.875 8.83334H9.72917V21.875H13.8333V15.0313C13.8333 11.2188 18.8021 10.8646 18.8021 15.0313V21.875H22.9167V13.6146C22.9167 7.1875 15.5625 7.42709 13.8333 10.5833L13.875 8.83334Z" fill="white"/>
</svg>
