<svg width="40" height="40" viewBox="0 0 40 40" fill="none" xmlns="http://www.w3.org/2000/svg">
<path d="M8.33337 15.834C8.33337 15.834 4.04754 17.5007 3.33337 23.334M31.6667 15.834C31.6667 15.834 35.9525 17.5007 36.6667 23.334M15 15.834C15 15.834 19 16.8065 20 21.6673C21 16.8065 25 15.834 25 15.834M16.6667 28.334C16.6667 28.334 13.1667 28.959 11.6667 33.334M23.3334 28.334C23.3334 28.334 26.8334 28.959 28.3334 33.334" stroke="#250101" stroke-width="4" stroke-linecap="round"/>
<path d="M20 30.0003C22.3012 30.0003 24.1667 28.1348 24.1667 25.8337C24.1667 23.5325 22.3012 21.667 20 21.667C17.6989 21.667 15.8334 23.5325 15.8334 25.8337C15.8334 28.1348 17.6989 30.0003 20 30.0003Z" stroke="#250101" stroke-width="4" stroke-linecap="round" stroke-linejoin="round"/>
<path d="M28.3334 16.667C31.0948 16.667 33.3334 14.4284 33.3334 11.667C33.3334 8.90557 31.0948 6.66699 28.3334 6.66699C25.572 6.66699 23.3334 8.90557 23.3334 11.667C23.3334 14.4284 25.572 16.667 28.3334 16.667Z" stroke="#250101" stroke-width="4" stroke-linecap="round" stroke-linejoin="round"/>
<path d="M11.6667 16.667C14.4282 16.667 16.6667 14.4284 16.6667 11.667C16.6667 8.90557 14.4282 6.66699 11.6667 6.66699C8.90532 6.66699 6.66675 8.90557 6.66675 11.667C6.66675 14.4284 8.90532 16.667 11.6667 16.667Z" stroke="#250101" stroke-width="4" stroke-linecap="round" stroke-linejoin="round"/>
</svg>
