<svg width="15" height="15" viewBox="0 0 15 15" fill="none" xmlns="http://www.w3.org/2000/svg">
<path d="M7.5 1.40625C4.14 1.40625 1.40625 4.14 1.40625 7.5C1.40625 10.86 4.14 13.5938 7.5 13.5938C10.86 13.5938 13.5938 10.86 13.5938 7.5C13.5938 4.14 10.86 1.40625 7.5 1.40625ZM7.5 2.34375C10.3533 2.34375 12.6562 4.64672 12.6562 7.5C12.6562 10.3533 10.3533 12.6562 7.5 12.6562C4.64672 12.6562 2.34375 10.3533 2.34375 7.5C2.34375 4.64672 4.64672 2.34375 7.5 2.34375ZM7.8375 4.49719L7.1625 5.15625L9.0375 7.03125H4.21875V7.96875H9.0375L7.1625 9.84375L7.8375 10.5028L10.5028 7.83703L10.8403 7.49953L10.5028 7.16203L7.83703 4.49672L7.8375 4.49719Z" fill="#989696"/>
</svg>
