<svg width="25" height="25" viewBox="0 0 25 25" fill="none" xmlns="http://www.w3.org/2000/svg">
<path d="M12.5 2.53906C10.5299 2.53906 8.60407 3.12326 6.966 4.21778C5.32793 5.3123 4.05121 6.86799 3.29729 8.68811C2.54337 10.5082 2.34611 12.5111 2.73046 14.4433C3.1148 16.3755 4.06349 18.1504 5.45655 19.5434C6.84962 20.9365 8.62449 21.8852 10.5567 22.2695C12.489 22.6539 14.4918 22.4566 16.3119 21.7027C18.132 20.9488 19.6877 19.6721 20.7822 18.034C21.8767 16.3959 22.4609 14.4701 22.4609 12.5C22.4578 9.85915 21.4074 7.32735 19.54 5.45998C17.6727 3.59261 15.1409 2.54216 12.5 2.53906ZM12.5 21.2891C10.7617 21.2891 9.06241 20.7736 7.61706 19.8078C6.17171 18.8421 5.04519 17.4694 4.37997 15.8634C3.71474 14.2574 3.54069 12.4903 3.87982 10.7853C4.21895 9.08043 5.05602 7.51437 6.28519 6.28519C7.51437 5.05602 9.08043 4.21894 10.7853 3.87982C12.4903 3.54069 14.2574 3.71474 15.8634 4.37996C17.4694 5.04519 18.8421 6.1717 19.8078 7.61706C20.7736 9.06241 21.2891 10.7617 21.2891 12.5C21.2865 14.8302 20.3597 17.0642 18.712 18.712C17.0642 20.3597 14.8302 21.2865 12.5 21.2891ZM9.17969 12.5C9.17969 13.1969 9.39895 13.8761 9.80642 14.4414C10.2139 15.0068 10.7889 15.4296 11.45 15.6499C12.1111 15.8703 12.8248 15.8771 13.49 15.6693C14.1552 15.4615 14.7381 15.0497 15.1562 14.4922C15.2496 14.3679 15.3886 14.2857 15.5425 14.2638C15.6964 14.242 15.8527 14.2821 15.9771 14.3755C16.1014 14.4689 16.1835 14.6078 16.2054 14.7617C16.2273 14.9156 16.1871 15.072 16.0938 15.1963C15.5279 15.9503 14.7392 16.5072 13.8393 16.7881C12.9394 17.069 11.9739 17.0597 11.0796 16.7615C10.1853 16.4632 9.40747 15.8912 8.8563 15.1264C8.30513 14.3616 8.00855 13.4427 8.00855 12.5C8.00855 11.5573 8.30513 10.6384 8.8563 9.87362C9.40747 9.1088 10.1853 8.53677 11.0796 8.23853C11.9739 7.94029 12.9394 7.93097 13.8393 8.21187C14.7392 8.49278 15.5279 9.04968 16.0938 9.80371C16.1871 9.92803 16.2273 10.0844 16.2054 10.2383C16.1835 10.3922 16.1014 10.5311 15.9771 10.6245C15.8527 10.7179 15.6964 10.758 15.5425 10.7362C15.3886 10.7143 15.2496 10.6321 15.1562 10.5078C14.7381 9.95031 14.1552 9.5385 13.49 9.33072C12.8248 9.12293 12.1111 9.1297 11.45 9.35007C10.7889 9.57045 10.2139 9.99324 9.80642 10.5586C9.39895 11.1239 9.17969 11.8031 9.17969 12.5Z" fill="black"/>
</svg>
