<svg width="25" height="25" viewBox="0 0 25 25" fill="none" xmlns="http://www.w3.org/2000/svg">
<g clip-path="url(#clip0_19_337)">
<path fill-rule="evenodd" clip-rule="evenodd" d="M12.5 2.08331C10.8424 2.08331 9.25273 2.74179 8.08063 3.9139C6.90853 5.086 6.25005 6.67571 6.25005 8.33331V10.2864L5.31255 9.58331C5.20311 9.50124 5.07858 9.44152 4.94607 9.40757C4.81356 9.37362 4.67565 9.3661 4.54023 9.38545C4.40482 9.4048 4.27453 9.45062 4.15683 9.52032C4.03912 9.59001 3.93629 9.68221 3.85421 9.79165C3.77214 9.90108 3.71242 10.0256 3.67847 10.1581C3.64452 10.2906 3.637 10.4285 3.65635 10.564C3.6757 10.6994 3.72152 10.8297 3.79122 10.9474C3.86092 11.0651 3.95311 11.1679 4.06255 11.25L6.0063 12.7083C5.5438 13.925 4.41567 15.1979 2.58963 16.2948C2.46986 16.3683 2.36603 16.4651 2.28427 16.5794C2.20251 16.6937 2.14447 16.8232 2.1136 16.9603C2.08272 17.0974 2.07962 17.2393 2.10449 17.3776C2.12936 17.5159 2.18168 17.6478 2.25838 17.7656C3.42296 19.5125 5.27088 20.8333 7.29171 20.8333C9.15005 20.8333 10.424 22.9166 12.5 22.9166C14.5948 22.9166 15.8428 20.8333 17.7084 20.8333C19.7292 20.8333 21.5771 19.5125 22.7417 17.7656C22.8184 17.6478 22.8707 17.5159 22.8956 17.3776C22.9205 17.2393 22.9174 17.0974 22.8865 16.9603C22.8556 16.8232 22.7976 16.6937 22.7158 16.5794C22.6341 16.4651 22.5302 16.3683 22.4105 16.2948C20.5844 15.1979 19.4563 13.925 18.9938 12.7083L20.9375 11.25C21.1586 11.0842 21.3047 10.8375 21.3437 10.564C21.3828 10.2905 21.3116 10.0127 21.1459 9.79165C20.9801 9.57063 20.7334 9.42452 20.4599 9.38545C20.1864 9.34638 19.9086 9.41755 19.6875 9.58331L18.75 10.2864V8.33331C18.75 6.67571 18.0916 5.086 16.9195 3.9139C15.7474 2.74179 14.1577 2.08331 12.5 2.08331Z" fill="white"/>
</g>
<defs>
<clipPath id="clip0_19_337">
<rect width="25" height="25" fill="white"/>
</clipPath>
</defs>
</svg>
