<svg width="46" height="40" viewBox="0 0 46 40" fill="none" xmlns="http://www.w3.org/2000/svg">
<rect x="6.19995" y="27" width="10.8" height="3" rx="1.5" fill="#250101"/>
<rect x="3.59998" y="22" width="12" height="3" rx="1.5" fill="#250101"/>
<rect y="17" width="18" height="3" rx="1.5" fill="#250101"/>
<path d="M26 33.3333C23.5246 33.3333 21.1507 32.35 19.4003 30.5997C17.65 28.8493 16.6667 26.4754 16.6667 24C16.6667 21.5246 17.65 19.1507 19.4003 17.4003C21.1507 15.65 23.5246 14.6667 26 14.6667C28.4754 14.6667 30.8493 15.65 32.5997 17.4003C34.35 19.1507 35.3333 21.5246 35.3333 24C35.3333 26.4754 34.35 28.8493 32.5997 30.5997C30.8493 32.35 28.4754 33.3333 26 33.3333ZM35.3733 16.52L37.2667 14.6267C36.6667 13.9467 36.0667 13.3333 35.3867 12.7467L33.4933 14.6667C31.4267 12.9867 28.8267 12 26 12C22.8174 12 19.7652 13.2643 17.5147 15.5147C15.2643 17.7652 14 20.8174 14 24C14 27.1826 15.2643 30.2348 17.5147 32.4853C19.7652 34.7357 22.8174 36 26 36C32.6667 36 38 30.6267 38 24C38 21.1733 37.0133 18.5733 35.3733 16.52ZM24.6667 25.3333H27.3333V17.3333H24.6667M30 8H22V10.6667H30V8Z" fill="#250101"/>
</svg>
