<svg width="172" height="200" viewBox="0 0 172 200" fill="none" xmlns="http://www.w3.org/2000/svg">
<path d="M85.7143 180.952C68.0332 180.952 51.0763 173.929 38.5738 161.426C26.0714 148.924 19.0476 131.967 19.0476 114.286C19.0476 96.6046 26.0714 79.6477 38.5738 67.1453C51.0763 54.6428 68.0332 47.619 85.7143 47.619C103.395 47.619 120.352 54.6428 132.855 67.1453C145.357 79.6477 152.381 96.6046 152.381 114.286C152.381 131.967 145.357 148.924 132.855 161.426C120.352 173.929 103.395 180.952 85.7143 180.952ZM152.667 60.8571L166.19 47.3333C161.905 42.4762 157.619 38.0952 152.762 33.9048L139.238 47.619C124.476 35.619 105.905 28.5714 85.7143 28.5714C62.9814 28.5714 41.1797 37.602 25.1051 53.6766C9.03059 69.7511 0 91.5529 0 114.286C0 137.019 9.03059 158.82 25.1051 174.895C41.1797 190.969 62.9814 200 85.7143 200C133.333 200 171.429 161.619 171.429 114.286C171.429 94.0952 164.381 75.5238 152.667 60.8571ZM76.1905 123.81H95.2381V66.6667H76.1905M114.286 0H57.1429V19.0476H114.286V0Z" fill="#250101"/>
</svg>
