<svg width="21" height="21" viewBox="0 0 21 21" fill="none" xmlns="http://www.w3.org/2000/svg">
<path d="M0.753977 4.51071e-05C0.34001 0.627695 0.237949 1.39868 0.397897 2.28905C0.588581 3.35082 1.16563 4.54736 1.99964 5.67394C3.66777 7.92715 6.36041 9.87491 8.7559 10.1702L8.92334 10.1914L9.03117 10.3198L17.846 20.8976C18.7246 21.1063 19.2919 20.9763 19.5868 20.6859C19.8841 20.3933 20.0212 19.8282 19.801 18.9314L0.754068 0L0.753977 4.51071e-05ZM17.7823 0.10439L12.8562 5.0012C12.3114 5.5427 12.3067 6.13853 12.588 6.78956L12.7044 7.05899L12.4915 7.26209L10.8373 8.83038L12.1809 10.166L13.7515 8.51721L13.9558 8.30283L14.2267 8.4199C14.9152 8.71484 15.5681 8.70274 16.074 8.19988L21 3.30307L20.3601 2.66698L17.1565 5.85022L16.5578 5.25372L19.7599 2.07056L19.0775 1.392L15.8754 4.57525L15.2752 3.97869L18.4773 0.79554L17.7823 0.10439ZM8.51891 11.0292L0.101292 19.0133C-0.106417 19.8685 0.026653 20.4027 0.30705 20.6789C0.587537 20.955 1.13008 21.0818 1.9798 20.8777L9.84416 12.6201L8.51891 11.0292Z" fill="black"/>
</svg>
